SplineFontDB: 3.2
FontName: Untitled1
FullName: Untitled1
FamilyName: Untitled1
Weight: Regular
Copyright: Copyright (c) 2025, jon
UComments: "2025-7-27: Created with FontForge (http://fontforge.org)"
Version: 001.000
ItalicAngle: 0
UnderlinePosition: -100
UnderlineWidth: 50
Ascent: 800
Descent: 200
InvalidEm: 0
LayerCount: 2
Layer: 0 0 "Back" 1
Layer: 1 0 "Fore" 0
XUID: [1021 805 1147186955 28319]
OS2Version: 0
OS2_WeightWidthSlopeOnly: 0
OS2_UseTypoMetrics: 1
CreationTime: 1753623586
ModificationTime: 1753702415
OS2TypoAscent: 0
OS2TypoAOffset: 1
OS2TypoDescent: 0
OS2TypoDOffset: 1
OS2TypoLinegap: 0
OS2WinAscent: 0
OS2WinAOffset: 1
OS2WinDescent: 0
OS2WinDOffset: 1
HheadAscent: 0
HheadAOffset: 1
HheadDescent: 0
HheadDOffset: 1
OS2Vendor: 'PfEd'
DEI: 91125
Encoding: ISO8859-1
UnicodeInterp: none
NameList: AGL For New Fonts
DisplaySize: -48
AntiAlias: 1
FitToEm: 0
WinInfo: 0 38 13
BeginChars: 256 20

StartChar: one
Encoding: 49 49 0
Width: 1000
Flags: H
LayerCount: 2
Fore
SplineSet
1000.02441406 -199.979492188 m 1
 0.03515625 -199.979492188 l 1
 0.03515625 800.010742188 l 1
 1000.02441406 800.010742188 l 1
 1000.02441406 -199.979492188 l 1
46.70703125 -153.306640625 m 1
 953.352539062 -153.306640625 l 1
 953.352539062 753.338867188 l 1
 46.70703125 753.338867188 l 1
 46.70703125 -153.306640625 l 1
500.046875 300.046875 m 1
 3.173828125 300.046875 l 1
 3.173828125 796.919921875 l 1
 500.046875 796.919921875 l 1
 500.046875 300.046875 l 1
EndSplineSet
EndChar

StartChar: two
Encoding: 50 50 1
Width: 1000
Flags: H
LayerCount: 2
Fore
SplineSet
1000.03027344 -199.978515625 m 1
 0.0419921875 -199.978515625 l 1
 0.0419921875 800.010742188 l 1
 1000.03027344 800.010742188 l 1
 1000.03027344 -199.978515625 l 1
46.7138671875 -153.306640625 m 1
 953.358398438 -153.306640625 l 1
 953.358398438 753.337890625 l 1
 46.7138671875 753.337890625 l 1
 46.7138671875 -153.306640625 l 1
996.825195312 300.046875 m 1
 499.953125 300.046875 l 1
 499.953125 796.919921875 l 1
 996.825195312 796.919921875 l 1
 996.825195312 300.046875 l 1
EndSplineSet
EndChar

StartChar: three
Encoding: 51 51 2
Width: 1000
Flags: H
LayerCount: 2
Fore
SplineSet
999.979492188 -199.99609375 m 1
 -0.009765625 -199.99609375 l 1
 -0.009765625 799.994140625 l 1
 999.979492188 799.994140625 l 1
 999.979492188 -199.99609375 l 1
46.662109375 -153.323242188 m 1
 953.307617188 -153.323242188 l 1
 953.307617188 753.322265625 l 1
 46.662109375 753.322265625 l 1
 46.662109375 -153.323242188 l 1
996.826171875 -196.825195312 m 1
 499.953125 -196.825195312 l 1
 499.953125 300.046875 l 1
 996.826171875 300.046875 l 1
 996.826171875 -196.825195312 l 1
EndSplineSet
EndChar

StartChar: four
Encoding: 52 52 3
Width: 1000
Flags: H
LayerCount: 2
Fore
SplineSet
1000.03222656 -199.997070312 m 1
 0.0419921875 -199.997070312 l 1
 0.0419921875 799.993164062 l 1
 1000.03222656 799.993164062 l 1
 1000.03222656 -199.997070312 l 1
46.71484375 -153.32421875 m 1
 953.360351562 -153.32421875 l 1
 953.360351562 753.321289062 l 1
 46.71484375 753.321289062 l 1
 46.71484375 -153.32421875 l 1
500.046875 -196.733398438 m 1
 3.173828125 -196.733398438 l 1
 3.173828125 300.139648438 l 1
 500.046875 300.139648438 l 1
 500.046875 -196.733398438 l 1
EndSplineSet
EndChar

StartChar: five
Encoding: 53 53 4
Width: 1000
Flags: H
LayerCount: 2
Fore
SplineSet
999.97265625 -200.034179688 m 1
 -0.0166015625 -200.034179688 l 1
 -0.0166015625 799.956054688 l 1
 999.97265625 799.956054688 l 1
 999.97265625 -200.034179688 l 1
46.6552734375 -153.361328125 m 1
 953.30078125 -153.361328125 l 1
 953.30078125 753.283203125 l 1
 46.6552734375 753.283203125 l 1
 46.6552734375 -153.361328125 l 1
499.953125 -196.733398438 m 1
 3.080078125 -196.733398438 l 1
 3.080078125 300.139648438 l 1
 499.953125 300.139648438 l 1
 499.953125 -196.733398438 l 1
499.953125 300.045898438 m 1
 3.080078125 300.045898438 l 1
 3.080078125 796.918945312 l 1
 499.953125 796.918945312 l 1
 499.953125 300.045898438 l 1
EndSplineSet
EndChar

StartChar: six
Encoding: 54 54 5
Width: 1000
Flags: H
LayerCount: 2
Fore
SplineSet
1000.02441406 -199.997070312 m 1
 0.0341796875 -199.997070312 l 1
 0.0341796875 799.993164062 l 1
 1000.02441406 799.993164062 l 1
 1000.02441406 -199.997070312 l 1
46.7060546875 -153.32421875 m 1
 953.3515625 -153.32421875 l 1
 953.3515625 753.321289062 l 1
 46.7060546875 753.321289062 l 1
 46.7060546875 -153.32421875 l 1
499.953125 -196.733398438 m 1
 3.080078125 -196.733398438 l 1
 3.080078125 300.139648438 l 1
 499.953125 300.139648438 l 1
 499.953125 -196.733398438 l 1
996.826171875 -196.733398438 m 1
 499.953125 -196.733398438 l 1
 499.953125 300.139648438 l 1
 996.826171875 300.139648438 l 1
 996.826171875 -196.733398438 l 1
EndSplineSet
EndChar

StartChar: seven
Encoding: 55 55 6
Width: 1000
Flags: H
LayerCount: 2
Fore
SplineSet
999.979492188 -199.98046875 m 1
 -0.0107421875 -199.98046875 l 1
 -0.0107421875 800.009765625 l 1
 999.979492188 800.009765625 l 1
 999.979492188 -199.98046875 l 1
46.662109375 -153.30859375 m 1
 953.307617188 -153.30859375 l 1
 953.307617188 753.336914062 l 1
 46.662109375 753.336914062 l 1
 46.662109375 -153.30859375 l 1
500.046875 300.045898438 m 1
 3.173828125 300.045898438 l 1
 3.173828125 796.918945312 l 1
 500.046875 796.918945312 l 1
 500.046875 300.045898438 l 1
976.6640625 300.045898438 m 1
 479.791015625 300.045898438 l 1
 479.791015625 796.918945312 l 1
 976.6640625 796.918945312 l 1
 976.6640625 300.045898438 l 1
EndSplineSet
EndChar

StartChar: eight
Encoding: 56 56 7
Width: 1000
Flags: H
LayerCount: 2
Fore
SplineSet
999.966796875 -199.984375 m 1
 -0.0234375 -199.984375 l 1
 -0.0234375 800.005859375 l 1
 999.966796875 800.005859375 l 1
 999.966796875 -199.984375 l 1
46.6494140625 -153.3125 m 1
 953.293945312 -153.3125 l 1
 953.293945312 753.333007812 l 1
 46.6494140625 753.333007812 l 1
 46.6494140625 -153.3125 l 1
996.826171875 -196.827148438 m 1
 499.953125 -196.827148438 l 1
 499.953125 300.045898438 l 1
 996.826171875 300.045898438 l 1
 996.826171875 -196.827148438 l 1
996.826171875 271.576171875 m 1
 499.953125 271.576171875 l 1
 499.953125 768.44921875 l 1
 996.826171875 768.44921875 l 1
 996.826171875 271.576171875 l 1
EndSplineSet
EndChar

StartChar: Q
Encoding: 81 81 8
Width: 1000
Flags: H
LayerCount: 2
Fore
SplineSet
1000.01855469 -199.983398438 m 1
 0.0283203125 -199.983398438 l 1
 0.0283203125 800.006835938 l 1
 1000.01855469 800.006835938 l 1
 1000.01855469 -199.983398438 l 1
46.7001953125 -153.310546875 m 1
 953.345703125 -153.310546875 l 1
 953.345703125 753.333984375 l 1
 46.7001953125 753.333984375 l 1
 46.7001953125 -153.310546875 l 1
996.732421875 -195.333007812 m 1
 499.859375 -195.333007812 l 1
 499.859375 301.540039062 l 1
 996.732421875 301.540039062 l 1
 996.732421875 -195.333007812 l 1
996.732421875 301.540039062 m 1
 499.859375 301.540039062 l 1
 499.859375 798.413085938 l 1
 996.732421875 798.413085938 l 1
 996.732421875 301.540039062 l 1
499.953125 -195.333007812 m 1
 3.080078125 -195.333007812 l 1
 3.080078125 301.540039062 l 1
 499.953125 301.540039062 l 1
 499.953125 -195.333007812 l 1
EndSplineSet
EndChar

StartChar: W
Encoding: 87 87 9
Width: 1000
Flags: H
LayerCount: 2
Fore
SplineSet
1000.03027344 -200.045898438 m 1
 0.0400390625 -200.045898438 l 1
 0.0400390625 800.03515625 l 1
 1000.03027344 800.03515625 l 1
 1000.03027344 -200.045898438 l 1
46.7119140625 -153.373046875 m 1
 953.357421875 -153.373046875 l 1
 953.357421875 753.36328125 l 1
 46.7119140625 753.36328125 l 1
 46.7119140625 -153.373046875 l 1
996.826171875 -196.827148438 m 1
 499.953125 -196.827148438 l 1
 499.953125 300.045898438 l 1
 996.826171875 300.045898438 l 1
 996.826171875 -196.827148438 l 1
500.046875 289.96484375 m 1
 3.173828125 289.96484375 l 1
 3.173828125 786.837890625 l 1
 500.046875 786.837890625 l 1
 500.046875 289.96484375 l 1
500.046875 -196.827148438 m 1
 3.173828125 -196.827148438 l 1
 3.173828125 300.045898438 l 1
 500.046875 300.045898438 l 1
 500.046875 -196.827148438 l 1
EndSplineSet
EndChar

StartChar: E
Encoding: 69 69 10
Width: 1000
Flags: H
LayerCount: 2
Fore
SplineSet
1000.0390625 -200.018554688 m 1
 -0.0419921875 -200.018554688 l 1
 -0.0419921875 799.971679688 l 1
 1000.0390625 799.971679688 l 1
 1000.0390625 -200.018554688 l 1
46.630859375 -153.346679688 m 1
 953.3671875 -153.346679688 l 1
 953.3671875 753.298828125 l 1
 46.630859375 753.298828125 l 1
 46.630859375 -153.346679688 l 1
996.826171875 300.045898438 m 1
 499.953125 300.045898438 l 1
 499.953125 796.918945312 l 1
 996.826171875 796.918945312 l 1
 996.826171875 300.045898438 l 1
499.953125 300.045898438 m 1
 3.080078125 300.045898438 l 1
 3.080078125 796.918945312 l 1
 499.953125 796.918945312 l 1
 499.953125 300.045898438 l 1
499.953125 -196.827148438 m 1
 3.080078125 -196.827148438 l 1
 3.080078125 300.045898438 l 1
 499.953125 300.045898438 l 1
 499.953125 -196.827148438 l 1
EndSplineSet
EndChar

StartChar: R
Encoding: 82 82 11
Width: 1000
Flags: H
LayerCount: 2
Fore
SplineSet
1000.01953125 -200.018554688 m 1
 0.0302734375 -200.018554688 l 1
 0.0302734375 799.971679688 l 1
 1000.01953125 799.971679688 l 1
 1000.01953125 -200.018554688 l 1
46.7021484375 -153.346679688 m 1
 953.34765625 -153.346679688 l 1
 953.34765625 753.298828125 l 1
 46.7021484375 753.298828125 l 1
 46.7021484375 -153.346679688 l 1
996.826171875 300.045898438 m 1
 499.953125 300.045898438 l 1
 499.953125 796.918945312 l 1
 996.826171875 796.918945312 l 1
 996.826171875 300.045898438 l 1
499.953125 300.045898438 m 1
 3.080078125 300.045898438 l 1
 3.080078125 796.918945312 l 1
 499.953125 796.918945312 l 1
 499.953125 300.045898438 l 1
996.826171875 -196.827148438 m 1
 499.953125 -196.827148438 l 1
 499.953125 300.045898438 l 1
 996.826171875 300.045898438 l 1
 996.826171875 -196.827148438 l 1
EndSplineSet
EndChar

StartChar: T
Encoding: 84 84 12
Width: 1000
Flags: H
LayerCount: 2
Fore
SplineSet
0.072265625 800.034179688 m 1
 1000.06152344 800.034179688 l 1
 1000.06152344 -199.956054688 l 1
 0.072265625 -199.956054688 l 1
 0.072265625 -176.62109375 l 1
 0.072265625 800.034179688 l 1
46.744140625 753.362304688 m 1
 46.744140625 -153.284179688 l 1
 953.389648438 -153.284179688 l 1
 953.389648438 753.362304688 l 1
 46.744140625 753.362304688 l 1
3.1728515625 -196.827148438 m 1
 3.1728515625 300.045898438 l 1
 500.045898438 300.045898438 l 1
 500.045898438 -196.827148438 l 1
 3.1728515625 -196.827148438 l 1
500.045898438 299.952148438 m 1
 500.045898438 796.825195312 l 1
 996.918945312 796.825195312 l 1
 996.918945312 299.952148438 l 1
 500.045898438 299.952148438 l 1
EndSplineSet
EndChar

StartChar: Y
Encoding: 89 89 13
Width: 1000
Flags: H
LayerCount: 2
Fore
SplineSet
999.955078125 -200.018554688 m 1
 -0.03515625 -200.018554688 l 1
 -0.03515625 799.971679688 l 1
 999.955078125 799.971679688 l 1
 999.955078125 -200.018554688 l 1
46.63671875 -153.346679688 m 1
 953.282226562 -153.346679688 l 1
 953.282226562 753.298828125 l 1
 46.63671875 753.298828125 l 1
 46.63671875 -153.346679688 l 1
996.826171875 -196.827148438 m 1
 499.953125 -196.827148438 l 1
 499.953125 300.045898438 l 1
 996.826171875 300.045898438 l 1
 996.826171875 -196.827148438 l 1
500.046875 300.045898438 m 1
 3.173828125 300.045898438 l 1
 3.173828125 796.918945312 l 1
 500.046875 796.918945312 l 1
 500.046875 300.045898438 l 1
EndSplineSet
EndChar

StartChar: A
Encoding: 65 65 14
Width: 1000
Flags: H
LayerCount: 2
Fore
SplineSet
0 -200 m 1
 0 -137.5 l 1
 1000 -137.5 l 1
 1000 -200 l 1
 0 -200 l 1
0 737.5 m 1
 0 800 l 1
 1000 800 l 1
 1000 737.5 l 1
 0 737.5 l 1
62.5 -200 m 1
 0 -200 l 1
 0 800 l 1
 62.5 800 l 1
 62.5 -200 l 1
1000 -200 m 1
 937.5 -200 l 1
 937.5 800 l 1
 1000 800 l 1
 1000 -200 l 1
750 -200 m 1
 750 50 l 1
 1000 50 l 1
 1000 -200 l 1
 750 -200 l 1
500 50 m 1
 500 300 l 1
 750 300 l 1
 750 50 l 1
 500 50 l 1
250 300 m 1
 250 550 l 1
 500 550 l 1
 500 300 l 1
 250 300 l 1
0 550 m 1
 0 800 l 1
 250 800 l 1
 250 550 l 1
 0 550 l 1
0 50 m 1
 0 300 l 1
 250 300 l 1
 250 50 l 1
 0 50 l 1
250 -200 m 1
 250 50 l 1
 500 50 l 1
 500 -200 l 1
 250 -200 l 1
750 300 m 1
 750 550 l 1
 1000 550 l 1
 1000 300 l 1
 750 300 l 1
500 550 m 1
 500 800 l 1
 750 800 l 1
 750 550 l 1
 500 550 l 1
EndSplineSet
EndChar

StartChar: S
Encoding: 83 83 15
Width: 1000
Flags: H
LayerCount: 2
Fore
SplineSet
0 800 m 1
 1000 800 l 1
 1000 737.5 l 1
 0 737.5 l 1
 0 800 l 1
0 -137.5 m 1
 1000 -137.5 l 1
 1000 -200 l 1
 0 -200 l 1
 0 -137.5 l 1
62.5 800 m 1
 62.5 -200 l 1
 0 -200 l 1
 0 800 l 1
 62.5 800 l 1
1000 800 m 1
 1000 -200 l 1
 937.5 -200 l 1
 937.5 800 l 1
 1000 800 l 1
750 800 m 1
 1000 800 l 1
 1000 550 l 1
 750 550 l 1
 750 800 l 1
500 550 m 1
 750 550 l 1
 750 300 l 1
 500 300 l 1
 500 550 l 1
250 800 m 1
 500 800 l 1
 500 550 l 1
 250 550 l 1
 250 800 l 1
0 550 m 1
 250 550 l 1
 250 300 l 1
 0 300 l 1
 0 550 l 1
512.3984375 275.411132812 m 1
 361.619140625 273.600585938 207.334960938 270.568359375 113.254882812 265.494140625 c 1
 512.3984375 275.411132812 l 1
974.198242188 278.119140625 m 1
 976.991210938 278.119140625 979.561523438 278.110351562 981.8984375 278.110351562 c 1
 975.393554688 266.720703125 975.393554688 240.7421875 975.393554688 240.7421875 c 1
 65.4765625 262.280273438 l 2
 40.966796875 260.15625 25.8623046875 257.747070312 23.1298828125 255.013671875 c 1
 23.1298828125 255.013671875 24.1806640625 259.079101562 16.404296875 263.44140625 c 1
 22.1591796875 273.009765625 23.109375 293.840820312 23.109375 299.653320312 c 1
 36.275390625 286.543945312 394.2890625 281.408203125 672.767578125 279.396484375 c 2
 975.393554688 286.915039062 l 1
 975.393554688 286.915039062 974.198242188 282.483398438 974.198242188 278.119140625 c 1
998.48046875 278.100585938 m 1
 990.529296875 286.051757812 985.31640625 284.094726562 998.48046875 278.100585938 c 1
23.1298828125 301.186523438 m 1
 23.109375 300.633789062 23.1298828125 301.186523438 23.1298828125 301.186523438 c 1
0.04296875 263.829101562 m 1
 7.8251953125 256.046875 12.984375 257.755859375 0.04296875 263.829101562 c 1
975.34765625 263.74609375 m 1
 23.236328125 263.74609375 l 1
 23.236328125 278.180664062 l 1
 975.34765625 278.180664062 l 1
 975.34765625 263.74609375 l 1
EndSplineSet
EndChar

StartChar: D
Encoding: 68 68 16
Width: 1000
Flags: H
LayerCount: 2
Fore
SplineSet
0 -200 m 1
 0 -137.5 l 1
 1000 -137.5 l 1
 1000 -200 l 1
 0 -200 l 1
0 737.5 m 1
 0 800 l 1
 1000 800 l 1
 1000 737.5 l 1
 0 737.5 l 1
62.5 -200 m 1
 0 -200 l 1
 0 800 l 1
 62.5 800 l 1
 62.5 -200 l 1
1000 -200 m 1
 937.5 -200 l 1
 937.5 800 l 1
 1000 800 l 1
 1000 -200 l 1
750 -199.999023438 m 1
 750 50.0009765625 l 1
 1000 50.0009765625 l 1
 1000 -199.999023438 l 1
 750 -199.999023438 l 1
500 50.0009765625 m 1
 500 300.000976562 l 1
 750 300.000976562 l 1
 750 50.0009765625 l 1
 500 50.0009765625 l 1
250 -199.999023438 m 1
 250 50.0009765625 l 1
 500 50.0009765625 l 1
 500 -199.999023438 l 1
 250 -199.999023438 l 1
0 50.0009765625 m 1
 0 300.000976562 l 1
 250 300.000976562 l 1
 250 50.0009765625 l 1
 0 50.0009765625 l 1
512.3984375 324.588867188 m 1
 361.619140625 326.399414062 207.334960938 329.431640625 113.254882812 334.505859375 c 1
 512.3984375 324.588867188 l 1
974.198242188 321.880859375 m 1
 976.991210938 321.880859375 979.561523438 321.889648438 981.8984375 321.889648438 c 1
 975.393554688 333.279296875 975.393554688 359.2578125 975.393554688 359.2578125 c 1
 65.4765625 337.719726562 l 2
 40.966796875 339.84375 25.8623046875 342.252929688 23.1298828125 344.986328125 c 1
 23.1298828125 344.986328125 24.1806640625 340.920898438 16.404296875 336.55859375 c 1
 22.1591796875 326.990234375 23.109375 306.159179688 23.109375 300.346679688 c 1
 36.275390625 313.456054688 394.2890625 318.591796875 672.767578125 320.603515625 c 2
 975.393554688 313.084960938 l 1
 975.393554688 313.084960938 974.198242188 317.516601562 974.198242188 321.880859375 c 1
998.48046875 321.899414062 m 1
 990.529296875 313.948242188 985.31640625 315.905273438 998.48046875 321.899414062 c 1
23.1298828125 298.813476562 m 1
 23.109375 299.366210938 23.1298828125 298.813476562 23.1298828125 298.813476562 c 1
0.04296875 336.170898438 m 1
 7.8251953125 343.953125 12.984375 342.244140625 0.04296875 336.170898438 c 1
975.34765625 336.254882812 m 1
 975.34765625 321.8203125 l 1
 23.236328125 321.8203125 l 1
 23.236328125 336.254882812 l 1
 975.34765625 336.254882812 l 1
EndSplineSet
EndChar

StartChar: G
Encoding: 71 71 17
Width: 1000
Flags: H
LayerCount: 2
Fore
SplineSet
999.978515625 -199.979492188 m 1
 -0.0107421875 -199.979492188 l 1
 -0.0107421875 800.009765625 l 1
 999.978515625 800.009765625 l 1
 999.978515625 -199.979492188 l 1
46.6611328125 -153.307617188 m 1
 953.306640625 -153.307617188 l 1
 953.306640625 753.337890625 l 1
 46.6611328125 753.337890625 l 1
 46.6611328125 -153.307617188 l 1
500.046875 300.046875 m 1
 3.173828125 300.046875 l 1
 3.173828125 796.919921875 l 1
 500.046875 796.919921875 l 1
 500.046875 300.046875 l 1
976.6640625 300.046875 m 1
 479.791015625 300.046875 l 1
 479.791015625 796.919921875 l 1
 976.6640625 796.919921875 l 1
 976.6640625 300.046875 l 1
274.11328125 -154.897460938 m 1
 46.3310546875 -154.897460938 l 1
 46.3310546875 72.884765625 l 1
 274.11328125 72.884765625 l 1
 274.11328125 -154.897460938 l 1
501.896484375 72.8837890625 m 1
 274.114257812 72.8837890625 l 1
 274.114257812 300.666015625 l 1
 501.896484375 300.666015625 l 1
 501.896484375 72.8837890625 l 1
729.678710938 -154.897460938 m 1
 501.896484375 -154.897460938 l 1
 501.896484375 72.884765625 l 1
 729.678710938 72.884765625 l 1
 729.678710938 -154.897460938 l 1
957.459960938 72.8837890625 m 1
 729.677734375 72.8837890625 l 1
 729.677734375 300.666015625 l 1
 957.459960938 300.666015625 l 1
 957.459960938 72.8837890625 l 1
EndSplineSet
EndChar

StartChar: F
Encoding: 70 70 18
Width: 1000
Flags: H
LayerCount: 2
Fore
SplineSet
999.978515625 799.979492188 m 1
 -0.0107421875 799.979492188 l 1
 -0.0107421875 -200.009765625 l 1
 999.978515625 -200.009765625 l 1
 999.978515625 799.979492188 l 1
46.6611328125 753.307617188 m 1
 953.306640625 753.307617188 l 1
 953.306640625 -153.337890625 l 1
 46.6611328125 -153.337890625 l 1
 46.6611328125 753.307617188 l 1
500.046875 299.953125 m 1
 500.046875 -196.919921875 l 1
 3.173828125 -196.919921875 l 1
 3.173828125 299.953125 l 1
 500.046875 299.953125 l 1
976.6640625 299.953125 m 1
 976.6640625 -196.919921875 l 1
 479.791015625 -196.919921875 l 1
 479.791015625 299.953125 l 1
 976.6640625 299.953125 l 1
274.11328125 754.896484375 m 1
 274.11328125 527.114257812 l 1
 46.3310546875 527.114257812 l 1
 46.3310546875 754.896484375 l 1
 274.11328125 754.896484375 l 1
501.896484375 527.115234375 m 1
 501.896484375 299.333007812 l 1
 274.114257812 299.333007812 l 1
 274.114257812 527.115234375 l 1
 501.896484375 527.115234375 l 1
729.678710938 754.896484375 m 1
 729.678710938 527.114257812 l 1
 501.896484375 527.114257812 l 1
 501.896484375 754.896484375 l 1
 729.678710938 754.896484375 l 1
957.459960938 527.115234375 m 1
 957.459960938 299.333007812 l 1
 729.677734375 299.333007812 l 1
 729.677734375 527.115234375 l 1
 957.459960938 527.115234375 l 1
EndSplineSet
EndChar

StartChar: H
Encoding: 72 72 19
Width: 1000
Flags: H
LayerCount: 2
Fore
SplineSet
-0 -200 m 1
 -0 -137.5 l 1
 1000 -137.5 l 1
 1000 -200 l 1
 -0 -200 l 1
-0 737.5 m 1
 -0 800 l 1
 1000 800 l 1
 1000 737.5 l 1
 -0 737.5 l 1
62.5 -200 m 1
 -0 -200 l 1
 -0 800 l 1
 62.5 800 l 1
 62.5 -200 l 1
1000 -200 m 1
 937.5 -200 l 1
 937.5 800 l 1
 1000 800 l 1
 1000 -200 l 1
498.9140625 -201.416015625 m 1
 498.9140625 48.583984375 l 1
 748.9140625 48.583984375 l 1
 748.9140625 -201.416015625 l 1
 498.9140625 -201.416015625 l 1
749.668945312 48.583984375 m 1
 749.668945312 298.583984375 l 1
 999.668945312 298.583984375 l 1
 999.668945312 48.583984375 l 1
 749.668945312 48.583984375 l 1
0.330078125 300 m 1
 0.330078125 550 l 1
 250.330078125 550 l 1
 250.330078125 300 l 1
 0.330078125 300 l 1
249.669921875 550 m 1
 249.669921875 800 l 1
 499.668945312 800 l 1
 499.668945312 550 l 1
 249.669921875 550 l 1
249.669921875 48.583984375 m 1
 249.669921875 298.583984375 l 1
 499.668945312 298.583984375 l 1
 499.668945312 48.583984375 l 1
 249.669921875 48.583984375 l 1
0.330078125 -198.583007812 m 1
 0.330078125 51.4169921875 l 1
 250.330078125 51.4169921875 l 1
 250.330078125 -198.583007812 l 1
 0.330078125 -198.583007812 l 1
500.330078125 300 m 1
 500.330078125 550 l 1
 750.330078125 550 l 1
 750.330078125 300 l 1
 500.330078125 300 l 1
749.668945312 550 m 1
 749.668945312 800 l 1
 999.668945312 800 l 1
 999.668945312 550 l 1
 749.668945312 550 l 1
EndSplineSet
EndChar
